HIERARCHY
ROOT hip
{
	OFFSET 0.000000 0.000000 0.000000 
	CHANNELS 6 Xposition Yposition Zposition Xrotation Zrotation Yrotation
	JOINT abdomen
	{
		OFFSET 0.000000 3.402643 0.000000 
		CHANNELS 3 Xrotation Zrotation Yrotation
		JOINT chest
		{
			OFFSET 0.000000 8.438565 -0.680529 
			CHANNELS 3 Xrotation Zrotation Yrotation
			JOINT neck
			{
				OFFSET 0.000000 10.207942 -0.272212 
				CHANNELS 3 Xrotation Zrotation Yrotation
				JOINT head
				{
					OFFSET 0.000000 3.130431 0.000000 
					CHANNELS 3 Xrotation Zrotation Yrotation
					End Site
					{
						OFFSET 0.000000 3.130435 0.000000 
					}
				}
			}
			JOINT lCollar
			{
				OFFSET 3.470700 6.669187 -0.816635 
				CHANNELS 3 Yrotation Zrotation Xrotation
				JOINT lShldr
				{
					OFFSET 3.198488 0.000000 0.000000 
					CHANNELS 3 Zrotation Yrotation Xrotation
					JOINT lForeArm
					{
						OFFSET 10.139888 0.000000 0.000000 
						CHANNELS 3 Yrotation Zrotation Xrotation
						JOINT lHand
						{
							OFFSET 8.370511 0.000000 0.000000 
							CHANNELS 3 Zrotation Yrotation Xrotation
							End Site
							{
								OFFSET 4.083176 0.000000 0.000000 
							}
						}
					}
				}
			}
			JOINT rCollar
			{
				OFFSET -3.470700 6.669187 -0.816635 
				CHANNELS 3 Yrotation Zrotation Xrotation
				JOINT rShldr
				{
					OFFSET -3.198488 0.000000 0.000000 
					CHANNELS 3 Zrotation Yrotation Xrotation
					JOINT rForeArm
					{
						OFFSET -10.139888 0.000000 0.000000 
						CHANNELS 3 Yrotation Zrotation Xrotation
						JOINT rHand
						{
							OFFSET -8.370511 0.000000 0.000000 
							CHANNELS 3 Zrotation Yrotation Xrotation
							End Site
							{
								OFFSET -4.083176 0.000000 0.000000 
							}
						}
					}
				}
			}
		}
	}
	JOINT lThigh
	{
		OFFSET 5.308129 -1.633274 1.361059 
		CHANNELS 3 Xrotation Zrotation Yrotation
		JOINT lShin
		{
			OFFSET -2.041588 -20.007561 0.000000 
			CHANNELS 3 Xrotation Zrotation Yrotation
			JOINT lFoot
			{
				OFFSET 0.000000 -19.190928 -1.224953 
				CHANNELS 3 Xrotation Yrotation Zrotation
				End Site
				{
					OFFSET 0.000000 -2.449906 4.627600 
				}
			}
		}
	}
	JOINT rThigh
	{
		OFFSET -5.308129 -1.633274 1.361059 
		CHANNELS 3 Xrotation Zrotation Yrotation
		JOINT rShin
		{
			OFFSET 2.041588 -20.007561 0.000000 
			CHANNELS 3 Xrotation Zrotation Yrotation
			JOINT rFoot
			{
				OFFSET 0.000000 -19.190928 -1.224953 
				CHANNELS 3 Xrotation Yrotation Zrotation
				End Site
				{
					OFFSET 0.000000 -2.449906 4.627600 
				}
			}
		}
	}
}
MOTION
Frames: 8
Frame Time: 0.033333
0.116810 48.800831 1.407148 0.000000 -0.761719 0.419922 0.000000 0.000000 0.000000 -2.392582 0.097571 0.113111 5.449383 0.146205 0.096638 5.673811 -0.195057 0.058811 -0.445368 10.081379 -1.590815 -2.677484 4.821342 -8.725548 0.765407 -3.533295 14.327844 0.314709 -3.957918 -3.407847 0.342762 -8.869139 -1.616958 2.642150 -9.989312 -3.731898 -0.929778 3.898690 10.528666 -0.743375 3.423555 -3.452581 6.276878 9.792200 8.747365 7.338606 -1.755942 14.836186 -9.581277 0.924478 -10.989009 8.288342 -8.250743 -9.210629 2.537220 1.786279 -26.361580 -4.570415 -0.469057 11.631073 
0.106994 48.819214 1.412774 0.068366 -0.820312 0.409038 0.000000 0.000000 0.000000 -2.480472 0.087808 0.054790 5.429800 0.170375 0.021933 5.585928 -0.136529 0.026728 -0.433117 10.278031 -1.676725 -2.811839 4.929309 -8.556530 0.780823 -3.634681 14.126449 0.318793 -4.026156 -3.407854 0.454684 -8.745834 -1.689402 2.632410 -10.145655 -3.712430 -0.911502 3.856858 10.565271 -0.866548 3.191133 -3.459697 6.403488 9.831073 8.833944 6.976779 -1.804375 14.834290 -9.416059 0.914601 -10.924272 8.709770 -8.173647 -9.300696 1.650932 1.917730 -26.302542 -4.277540 -0.438768 11.379666 
0.085096 48.817574 1.409929 -0.009767 -0.830078 0.410299 0.000000 0.000000 0.000000 -2.421878 0.087812 0.006052 5.478550 0.125910 -0.013588 5.556630 -0.156029 0.008305 -0.453900 10.209937 -1.631410 -2.783204 5.017126 -8.585592 0.775798 -3.631212 13.725972 0.444658 -3.999084 -3.415546 0.444341 -8.705552 -1.638662 2.594923 -10.125834 -3.817774 -0.924296 3.818430 10.710904 -0.825143 3.154491 -3.457351 6.460546 9.887869 8.872166 7.008386 -1.796126 14.793992 -9.414198 0.925479 -10.951458 8.736206 -8.122290 -9.293660 1.806437 1.931026 -26.264645 -4.379185 -0.443976 11.380950 
0.071379 48.809647 1.394928 0.000000 -0.820313 0.400392 0.000000 0.000000 0.000000 -2.412112 0.087813 -0.003699 5.449226 0.084687 0.008759 5.615221 -0.175542 0.028695 -0.479319 10.103175 -1.619930 -2.725972 5.085237 -8.661033 0.755115 -3.581768 13.576925 0.448167 -4.057573 -3.415549 0.355235 -8.751546 -1.630599 2.595904 -10.037698 -3.885809 -0.940138 3.841539 10.507601 -0.639065 3.155884 -3.446174 6.344344 9.908614 8.842572 7.199611 -1.774127 14.803791 -9.479337 0.929243 -10.994757 8.426856 -8.153758 -9.236903 2.343062 1.908378 -26.205008 -4.605412 -0.479902 11.468872 
0.056782 48.811031 1.393758 -0.058600 -0.820312 0.352401 0.000000 0.000000 0.000000 -2.373051 0.107330 0.063911 5.429623 0.025655 0.040633 5.712888 -0.068272 -0.045381 -0.450777 9.974385 -1.588058 -2.607765 5.036843 -8.625467 0.745413 -3.608371 13.616362 0.451677 -4.116062 -3.416248 0.331991 -8.936813 -1.613215 2.794388 -10.115060 -3.975870 -0.943631 3.782818 10.661777 -0.629302 3.156469 -3.445585 6.403614 9.918815 8.894462 7.180312 -1.813311 14.871258 -9.438406 0.923099 -10.985644 8.456103 -8.153686 -9.246951 2.391739 1.913955 -26.211899 -4.629599 -0.465089 11.475925 
0.033123 48.813293 1.404430 -0.048833 -0.839843 0.293684 0.000000 0.000000 0.000000 -2.382818 0.117086 0.102550 5.390457 -0.003150 0.047420 5.722656 0.019507 -0.098638 -0.230405 10.055572 -1.600008 -2.714183 4.851285 -8.580418 0.730820 -3.675232 13.334229 0.646542 -4.094625 -3.428048 0.218425 -8.777582 -1.617934 2.590149 -9.988043 -4.121165 -0.942918 3.767026 10.602619 -0.725387 3.287669 -3.451426 6.463588 9.950483 8.958902 7.089613 -1.830836 15.041588 -9.364496 0.902162 -11.025741 8.514301 -8.075522 -9.166667 2.255507 1.869482 -26.239716 -4.577291 -0.476699 11.437439 
0.027083 48.790016 1.419291 -0.234396 -0.771478 0.305890 0.000000 0.000000 0.000000 -2.275392 0.068305 0.085177 5.527277 -0.002439 0.000656 5.634764 -0.058515 -0.075090 -0.273699 10.105000 -1.499453 -2.840148 4.909997 -8.499358 0.741255 -3.699644 13.413618 0.724721 -4.089938 -3.432756 0.263006 -8.836341 -1.520298 2.629981 -10.026938 -4.142831 -0.933798 3.755247 10.631026 -0.677740 3.310096 -3.448482 6.536775 9.964625 8.992670 7.364819 -1.862771 14.741223 -9.570203 0.919318 -11.045289 8.191136 -8.230754 -9.226985 3.308461 1.848818 -26.122047 -5.048311 -0.522321 11.699266 
0.019658 48.791023 1.423947 -0.234395 -0.742181 0.305770 0.000000 0.000000 0.000000 -2.294924 0.078062 0.133590 5.497880 -0.035552 -0.001832 5.771482 -0.078030 -0.152390 -0.295713 9.968609 -1.518269 -2.833084 4.909235 -8.655916 0.742923 -3.619685 13.440965 0.452847 -4.135558 -3.416250 0.301329 -8.769569 -1.531975 2.373043 -10.107826 -3.512118 -0.971086 4.000480 10.172786 -0.631850 3.361764 -3.445531 6.653834 9.876678 8.944259 7.188337 -1.794147 14.666667 -9.513922 0.943309 -11.053588 8.141797 -8.260341 -9.221045 3.269425 1.820317 -26.154119 -4.967335 -0.510243 11.669833 
